# xmcd
#
# Track frame offsets:
# 150
# 14192
# 27698
# 45709
# 67359
# 83741
# 97474
# 110806
# 126301
# 142666
# 159234
# 173483
# 189571
# 206759
# 222302
# 235398
# 248829
# 266120
# 281735
# 296228
# 314080
#
# Disc length: 4417 seconds
#
# Revision: 0
# Processed by: cddbd v1.4PL0 Copyright (c) Steve Scherf et al.
# Submitted via: Audion 2.5.0 (http://www.panic.com/audion/)
#
DISCID=5c113f15
DTITLE=José José - José José
DYEAR=1900
DGENRE=
TTITLE0=uno
TTITLE1=dos
TTITLE2=tres
TTITLE3=cuatro
TTITLE4=cinco
TTITLE5=seis
TTITLE6=siete
TTITLE7=ocho
TTITLE8=nueve
TTITLE9=diez
TTITLE10=once
TTITLE11=doce
TTITLE12=trece
TTITLE13=catorce
TTITLE14=quince
TTITLE15=dieciseis
TTITLE16=diecisiete
TTITLE17=dieciocho
TTITLE18=diecinueve
TTITLE19=veinte
TTITLE20=veintiuna
EXTD=
EXTT0=
EXTT1=
EXTT2=
EXTT3=
EXTT4=
EXTT5=
EXTT6=
EXTT7=
EXTT8=
EXTT9=
EXTT10=
EXTT11=
EXTT12=
EXTT13=
EXTT14=
EXTT15=
EXTT16=
EXTT17=
EXTT18=
EXTT19=
EXTT20=
PLAYORDER=
